M48
; DRILL file KiCad 10.0.3 date 2026-07-03T18:12:53
; FORMAT={-:-/ absolute / metric / decimal}
; #@! TF.CreationDate,2026-07-03T18:12:53+01:00
; #@! TF.GenerationSoftware,Kicad,Pcbnew,10.0.3
; #@! TF.FileFunction,Plated,1,2,PTH
FMAT,2
METRIC
; #@! TA.AperFunction,Plated,PTH,ViaDrill
T1C0.300
; #@! TA.AperFunction,Plated,PTH,ComponentDrill
T2C1.000
; #@! TA.AperFunction,Plated,PTH,ComponentDrill
T3C1.500
%
G90
G05
T1
X139.0Y-53.0
X139.5Y-81.5
X141.5Y-44.0
X141.9Y-84.5
X142.5Y-48.0
X143.0Y-95.0
X150.5Y-67.5
X171.5Y-42.5
X171.5Y-61.5
X171.5Y-81.5
T2
X139.0Y-45.0
X139.0Y-47.5
X139.0Y-50.0
X140.75Y-83.5
X140.75Y-86.04
X140.75Y-88.58
X140.75Y-91.12
X140.75Y-93.66
X140.75Y-96.2
X140.75Y-98.74
X153.5Y-45.0
X153.5Y-50.0
X156.0Y-83.5
X156.0Y-86.04
X156.0Y-88.58
X156.0Y-91.12
X156.0Y-93.66
X156.0Y-96.2
X156.0Y-98.74
T3
X144.235Y-67.505
X150.585Y-64.965
X165.11Y-48.29
X165.11Y-67.46
X165.11Y-86.63
X171.46Y-45.75
X171.46Y-64.92
X171.46Y-84.09
T3
G00X145.85Y-41.9
M15
G01X147.15Y-41.9
M16
G05
G00X145.85Y-53.1
M15
G01X147.15Y-53.1
M16
G05
M30
