%TF.GenerationSoftware,KiCad,Pcbnew,10.0.3*%
%TF.CreationDate,2026-07-03T18:12:42+01:00*%
%TF.ProjectId,Hackpad,4861636b-7061-4642-9e6b-696361645f70,rev?*%
%TF.SameCoordinates,Original*%
%TF.FileFunction,Soldermask,Top*%
%TF.FilePolarity,Negative*%
%FSLAX46Y46*%
G04 Gerber Fmt 4.6, Leading zero omitted, Abs format (unit mm)*
G04 Created by KiCad (PCBNEW 10.0.3) date 2026-07-03 18:12:42*
%MOMM*%
%LPD*%
G01*
G04 APERTURE LIST*
%ADD10R,3.500000X1.700000*%
%ADD11O,3.600000X1.700000*%
%ADD12O,3.700000X1.700000*%
%ADD13C,1.700000*%
%ADD14C,4.000000*%
%ADD15C,2.200000*%
%ADD16R,2.000000X2.000000*%
%ADD17C,2.000000*%
%ADD18R,3.200000X2.000000*%
G04 APERTURE END LIST*
D10*
%TO.C,U1*%
X157000000Y-98740000D03*
D11*
X157000000Y-96200000D03*
X157000000Y-93660000D03*
X157000000Y-91120000D03*
X157000000Y-88580000D03*
X157000000Y-86040000D03*
X157000000Y-83500000D03*
X139750000Y-83500000D03*
X139750000Y-86040000D03*
X139750000Y-88580000D03*
D12*
X139750000Y-91120000D03*
X139750000Y-93660000D03*
X139750000Y-96200000D03*
X139750000Y-98740000D03*
%TD*%
D13*
%TO.C,SW1*%
X163840000Y-50830000D03*
D14*
X168920000Y-50830000D03*
D13*
X174000000Y-50830000D03*
D15*
X171460000Y-45750000D03*
X165110000Y-48290000D03*
%TD*%
D13*
%TO.C,SW3*%
X163840000Y-89170000D03*
D14*
X168920000Y-89170000D03*
D13*
X174000000Y-89170000D03*
D15*
X171460000Y-84090000D03*
X165110000Y-86630000D03*
%TD*%
D13*
%TO.C,SW2*%
X163840000Y-70000000D03*
D14*
X168920000Y-70000000D03*
D13*
X174000000Y-70000000D03*
D15*
X171460000Y-64920000D03*
X165110000Y-67460000D03*
%TD*%
D16*
%TO.C,SW6*%
X139000000Y-45000000D03*
D17*
X139000000Y-50000000D03*
X139000000Y-47500000D03*
D18*
X146500000Y-41900000D03*
X146500000Y-53100000D03*
D17*
X153500000Y-50000000D03*
X153500000Y-45000000D03*
%TD*%
D13*
%TO.C,SW4*%
X142965000Y-70045000D03*
D14*
X148045000Y-70045000D03*
D13*
X153125000Y-70045000D03*
D15*
X150585000Y-64965000D03*
X144235000Y-67505000D03*
%TD*%
M02*
